<mxfile host="app.diagrams.net" modified="2024-02-28T03:41:35.262Z" agent="Mozilla/5.0 (Macintosh; Intel Mac OS X 10_15_7) AppleWebKit/537.36 (KHTML, like Gecko) Chrome/119.0.0.0 Safari/537.36" version="23.1.7" etag="--MbY8fAz9NBjXaZ7ei3" type="github">
  <diagram name="第 1 页" id="B3tPYIUx9oePQ5Cu4HwT">
    <mxGraphModel>
      <root>
        <mxCell id="0" />
        <mxCell id="1" parent="0" />
      </root>
    </mxGraphModel>
  </diagram>
</mxfile>
